# xmcd
#
# Track frame offsets: 
#        150
#        26397
#        33865
#
# Disc length: 693 seconds
#
# Revision: 1
# Processed by: cddbd v1.5.2PL0 Copyright (c) Steve Scherf et al.
# Submitted via: ExactAudioCopy v1.3
#
DISCID=1502b303
DTITLE=小田和正 - そのままの 君が好き FHDL-1007
DYEAR=1992
DGENRE=アニメ
TTITLE0=そのままの 君が好き
TTITLE1=ライサのテーマ
TTITLE2=ROCK CLIMBING〜テオニシウスII世のテーマ〜
EXTD=YEAR: 1992
EXTT0=
EXTT1=
EXTT2=
PLAYORDER=
